<?xml version="1.0" encoding="utf-8"?>
<!-- Generator: Adobe Illustrator 19.0.0, SVG Export Plug-In . SVG Version: 6.00 Build 0)  -->
<svg version="1.1" id="Layer_1" xmlns="http://www.w3.org/2000/svg" xmlns:xlink="http://www.w3.org/1999/xlink" x="0px" y="0px"
	 viewBox="0 0 105 84" style="enable-background:new 0 0 105 84;" xml:space="preserve">
<style type="text/css">
	.st0{fill:#C62828;}
</style>
<g id="XMLID_45_">
	<polygon id="XMLID_52_" fill="#C62828" points="97,27 94,27 94,34 97,34 97,37 94,37 94,44 97,44 97,37 104,37 104,34 97,34 	"/>
	<rect id="XMLID_59_" x="87" y="34" fill="#C62828" width="7" height="3"/>
	<path id="XMLID_60_" fill="#C62828" d="M51.4,36.4c-0.5-0.1-1.1,0.2-1.2,0.7c-1.2,4.6-3.7,8.8-7.2,12.1c-0.4,0.4-0.4,1,0,1.4
		c0.2,0.2,0.5,0.3,0.7,0.3c0.2,0,0.5-0.1,0.7-0.3c3.8-3.5,6.5-8,7.8-13C52.2,37.1,51.9,36.5,51.4,36.4z"/>
	<path id="XMLID_61_" fill="#C62828" d="M52.4,57.1c0.3,0,0.5-0.1,0.7-0.3c5.7-6,9.4-13.9,10.2-22.1c0.1-0.5-0.3-1-0.9-1.1
		c-0.6-0.1-1,0.3-1.1,0.9c-0.8,7.8-4.2,15.2-9.7,20.9c-0.4,0.4-0.4,1,0,1.4C51.9,57,52.1,57.1,52.4,57.1z"/>
	<polygon id="XMLID_62_" fill="#C62828" points="74,54 71,54 71,59 74,59 74,62 71,62 71,67 74,67 74,62 79,62 79,59 74,59 	"/>
	<rect id="XMLID_64_" x="66" y="59" fill="#C62828" width="5" height="3"/>
	<path id="XMLID_86_" fill="#C62828" d="M105,15.8c0-2.9-2.4-5.3-5.3-5.3H86.2C84.2,6.2,79.6,3,74.9,3h-9c-0.7-2.1-2.5-3-4.8-3H8.3
		C3.4,0,0,4.2,0,9v14c0,4.8,3.4,8.5,8.3,8.5H10v24.1l-4.5,9C5,65.6,4,66.4,4,67.5V78c0,3.9,3.9,6,7.8,6H47c3.9,0,7-3.1,7-7V66.5
		c0-0.2,0-0.5-0.1-0.7c-0.1-0.2-0.2-0.4-0.4-0.6L44,55.8c-1-1-2.3-1.5-3.7-1.5h-3.8c-1,0-1.8-0.8-2.3-1.8V42h2.3
		c2.9,0,5.3-1.6,5.3-4.5v-6H61c2.2,0,4.2-1.4,5-3.5h9.1c4.7,0,9.1-2.7,11.1-7h13.5C102.6,21,105,18.6,105,15.8z M42.1,3L26.8,28.5
		h-6L36.1,3H42.1z M31.2,32v18c-2.9,0-6-2.7-6-5.4V32L31.2,32z M8.5,3h3.6L3,18.1V8.8C3,5.9,5.6,3,8.5,3z M4.5,26.5
		c0.1,0.1,0.2,0.2,0.3,0.3C4.7,26.7,4.6,26.6,4.5,26.5z M3.7,25.3C3.7,25.4,3.7,25.4,3.7,25.3C3.7,25.4,3.7,25.4,3.7,25.3z M5,27
		c0.4,0.3,0.8,0.6,1.2,0.8C5.7,27.6,5.3,27.3,5,27z M8.5,28.5c-0.8,0-1.6-0.2-2.4-0.6L21.1,3h6L11.8,28.5H8.5z M50.7,76.7
		c0,1.8-1.1,4.3-3,4.3H11.6c-1.9,0-3.3-2.4-3-4.3v-8.3c0-0.2-0.2-2.6,0-3.1l3.7-5.3l7.8,7.4c1,0.9,2.1,0.8,3.5,0.8h27.1V76.7z
		 M36.4,58.1h3.8c0.5,0,0.9,0.2,1.2,0.5L48,65H23.8c-0.5,0-0.9-0.2-1.2-0.5L13,55.8V32h9.1v13.4c0,4.8,4.2,9.2,9.1,9.2h0.3
		C32.2,56.7,34.2,58,36.4,58.1z M38,37.6c0,0.9-0.5,1.4-1.3,1.4H34v-7h4V37.6z M35.8,28.5L51.1,3h6L41.8,28.5H35.8z M63,19h-3
		c-1,0-2,0.5-2,1.5c0,0,0,1.5,2,1.5h3v5c0,1-0.7,1.5-1.7,1.5H50.8L58.3,16c-0.2-0.2-0.3-0.6-0.3-1c0-0.1,0-0.2,0-0.2
		c0.2,0.8,1.1,1.2,2,1.2h3V19z M63,13h-2.9l1.5-2.5H59c-1,0-1-0.5-1-1.5c0-1,0.5-1.5,1.5-1.5l3,0V5.3C62.5,4.3,62,3,61,3h0.3
		c1,0,1.7,1,1.7,2V13z M73,25h-7V6h7V25z M83.4,18.7c-1,2.9-4.4,4.7-7.4,5.3V8c3,0.6,6.4,2,7.4,4.9c0.3,0.9,0.5,1.9,0.5,2.9
		C83.9,16.7,83.7,17.7,83.4,18.7z M86.9,13.5h13.6c1.5,0,1.5,0,1.5,2.3s0,2.3-1.5,2.3H86.9c0.1-0.6,0.5-1.7,0.5-2.2
		C87.4,15.2,87,14.1,86.9,13.5z"/>
</g>
</svg>
