<?xml version="1.0" encoding="utf-8"?>
<!-- Generator: Adobe Illustrator 21.0.0, SVG Export Plug-In . SVG Version: 6.00 Build 0)  -->
<svg version="1.1" id="Layer_1" xmlns="http://www.w3.org/2000/svg" xmlns:xlink="http://www.w3.org/1999/xlink" x="0px" y="0px"
	 viewBox="0 0 750 1334" style="enable-background:new 0 0 750 1334;" xml:space="preserve">
<style type="text/css">
	.st0{opacity:0.9;clip-path:url(#SVGID_2_);}
	.st1{fill:url(#SVGID_3_);}
	.st2{opacity:0.12;clip-path:url(#SVGID_2_);fill:#FFFFFF;}
	.st3{opacity:0.9;clip-path:url(#SVGID_2_);fill:url(#SVGID_4_);}
</style>
<g>
	<defs>
		<rect id="SVGID_1_" width="750" height="1334"/>
	</defs>
	<clipPath id="SVGID_2_">
		<use xlink:href="#SVGID_1_"  style="overflow:visible;"/>
	</clipPath>
	<g class="st0">
		<linearGradient id="SVGID_3_" gradientUnits="userSpaceOnUse" x1="137.8828" y1="699.2166" x2="580.6879" y2="1331.6079">
			<stop  offset="0" style="stop-color:#1976D2"/>
			<stop  offset="0.2644" style="stop-color:#2260BE"/>
			<stop  offset="0.627" style="stop-color:#2C48A7"/>
			<stop  offset="0.85" style="stop-color:#303F9F"/>
		</linearGradient>
		<path class="st1" d="M750,1591l0-855.8c-68.3,58.3-148.6,108.1-218.9,158.3C380.5,1000.7,198,1221,175.4,1591H750z"/>
	</g>
	<path class="st2" d="M435.2,1153l-23,67.2H391l-23-67.2h21.2l12.4,36.3L414,1153H435.2z M504.3,1198.8c-0.3,0.9-0.6,1.7-0.9,2.5
		c-1.7,3.1-3.8,7.9-10.3,14c-5.8,4.8-13.1,7.7-21.1,7.7c-18.8,0-34.1-15.9-34.1-35.4c0-19.6,15.3-35.9,34.1-35.4
		c19.8,0.5,31.3,21.8,21.6,24.4c-10.1,2.8-38.7,10.1-38.7,10.1s-3.7,12,9.2,18.4c12.9,6.4,26.7,2.8,34.1-5.5
		C498.3,1199.5,504,1193.5,504.3,1198.8z M452.2,1179.3c16.6,0,31.3-7.4,29.5-14.7s-10.1-11-20.3-5.5
		C451.3,1164.5,452.2,1179.3,452.2,1179.3z M576.9,1172.7c-0.7-13.5-7.7-19.4-22.5-21.1c-15.7-1.8-21.6,12.7-21.6,12.7V1153h-19.3
		v67.2h19.3V1179c0-1.8,0.8-10.9,12.4-12.6c11.6-1.7,12.4,12.6,12.4,15.4v38.5H577L576.9,1172.7L576.9,1172.7z M590.8,1199.1
		c0.7,13.5,7.3,19.4,22.1,21.2c15.7,1.8,21.6-12.7,21.6-12.7v12.7h19.8v-68.1H635v40.5c0,1.8-1.3,11.2-12.9,12.9
		c-11.6,1.7-11.9-12.8-12-15.7v-37.7h-19.3V1199.1z M706.8,1173.3h17.5c0,0,0.9-22.1-29.5-22.1c-30.4,0-28.5,15.7-28.5,21.2
		s6,14.3,19.8,17c13.8,2.8,22.6,6,22.6,11.5s-6,9.7-14.3,9.7s-12.4-7.8-12.4-12.4h-16.6c0,0-0.9,23,30.4,23
		c31.3,0,32.2-16.6,32.2-22.1c0-6.4-7.8-17-28.1-21.6c-20.3-4.6-14.7-14.7-6.4-14.7S705,1167.8,706.8,1173.3z"/>
	<linearGradient id="SVGID_4_" gradientUnits="userSpaceOnUse" x1="-153.9348" y1="39.1035" x2="577.4886" y2="1083.6844">
		<stop  offset="0" style="stop-color:#1976D2"/>
		<stop  offset="0.2644" style="stop-color:#2260BE"/>
		<stop  offset="0.627" style="stop-color:#2C48A7"/>
		<stop  offset="0.85" style="stop-color:#303F9F"/>
	</linearGradient>
	<path class="st3" d="M0-1l0,1591h175.4c22.6-370,205.2-590.3,355.7-697.6c70.4-50.1,150.6-99.9,218.9-158.3L750-1L0-1z"/>
</g>
</svg>
