<?xml version="1.0" encoding="utf-8"?>
<!-- Generator: Adobe Illustrator 19.0.0, SVG Export Plug-In . SVG Version: 6.00 Build 0)  -->
<svg version="1.1" id="Layer_1" xmlns="http://www.w3.org/2000/svg" xmlns:xlink="http://www.w3.org/1999/xlink" x="0px" y="0px"
	 viewBox="0 0 84 84" style="enable-background:new 0 0 84 84;" xml:space="preserve">
<style type="text/css">
	.st0{fill:#C62828;}
</style>
<g id="XMLID_39_">
	<path id="XMLID_42_" fill="#C62828" d="M78.7,73.5c-1,0-1.9,0.3-2.7,0.7L55.9,53.4C58.5,50.3,60,46.3,60,42c0,0,0-0.1,0-0.1L70.1,41
		c0.7,2.1,2.7,3.6,5,3.6c2.9,0,5.3-2.4,5.3-5.3S78,34,75.1,34c-2.6,0-4.8,2-5.2,4.5l-10.1,0.9c-0.6-4.2-2.6-7.9-5.6-10.6l11.1-12.2
		c0.7,0.4,1.6,0.6,2.5,0.6c2.9,0,5.3-2.4,5.3-5.3c0-2.9-2.4-5.3-5.3-5.3c-2.9,0-5.3,2.4-5.3,5.3c0,1.1,0.3,2.1,0.9,3L52.3,27.3
		C49.4,25.2,45.8,24,42,24c-0.6,0-1.2,0-1.8,0.1l-2.4-14c1.9-0.8,3.2-2.7,3.2-4.8c0-2.9-2.4-5.3-5.3-5.3c-2.9,0-5.3,2.4-5.3,5.3
		c0,2.8,2.2,5.1,4.9,5.3l2.4,14c-4.4,1.1-8.1,3.7-10.6,7.3l-9.9-5c0.1-0.4,0.1-0.7,0.1-1.1c0.1-2.9-2.3-5.3-5.2-5.4
		c-2.9-0.1-5.3,2.3-5.4,5.2c-0.1,2.9,2.4,5.4,5.3,5.4c1.6,0,3-0.7,4-1.9l9.8,5C24.7,36.4,24,39.1,24,42c0,2.1,0.4,4,1,5.9L9.3,55.9
		c-1-1.1-2.4-1.8-4-1.8c-2.9,0-5.3,2.4-5.3,5.3c0,2.9,2.4,5.3,5.3,5.3s5.3-2.4,5.3-5.3c0-0.4-0.1-0.8-0.1-1.2l15.6-8
		c1.9,3.8,5.2,6.9,9.2,8.5l-2,6.6c-0.1,0-0.2,0-0.3,0c-2.9,0-5.3,2.4-5.3,5.3c0,2.9,2.4,5.3,5.3,5.3c2.9,0,5.3-2.4,5.3-5.3
		c0-1.9-1.1-3.6-2.6-4.6l1.9-6.5c1.4,0.4,3,0.6,4.5,0.6c4.7,0,9-1.8,12.2-4.8l20.1,20.7c-0.5,0.8-0.8,1.8-0.8,2.8
		c0,2.9,2.4,5.3,5.3,5.3s5.3-2.4,5.3-5.3S81.6,73.5,78.7,73.5z M75.1,36.5c1.5,0,2.8,1.3,2.8,2.8s-1.3,2.8-2.8,2.8
		c-1.5,0-2.8-1.3-2.8-2.8S73.5,36.5,75.1,36.5z M67.8,9.2c1.5,0,2.8,1.3,2.8,2.8s-1.3,2.8-2.8,2.8S65,13.5,65,12S66.3,9.2,67.8,9.2z
		 M35.7,8.1c-1.5,0-2.8-1.3-2.8-2.8s1.3-2.8,2.8-2.8c1.5,0,2.8,1.3,2.8,2.8S37.2,8.1,35.7,8.1z M12,28.3c-1.5,0-2.8-1.3-2.8-2.9
		c0-1.5,1.3-2.8,2.9-2.8c1.5,0,2.8,1.3,2.8,2.9C14.9,27.1,13.6,28.4,12,28.3z M5.3,62.2c-1.5,0-2.8-1.3-2.8-2.8
		c0-1.5,1.3-2.8,2.8-2.8c1.5,0,2.8,1.3,2.8,2.8C8.1,60.9,6.8,62.2,5.3,62.2z M35.7,70.5c0,1.5-1.3,2.8-2.8,2.8
		c-1.5,0-2.8-1.3-2.8-2.8s1.3-2.8,2.8-2.8C34.4,67.7,35.7,68.9,35.7,70.5z M45,40c3.3,0,5,3.5,5,6.7s-1.5,6.2-4.8,6.2L44,53v2
		c0,0.7-1.3,1-2,1s-2-0.3-2-1v-2h-4c-0.7,0-2-0.8-2-1.5c0-0.7,1.3-1.5,2-1.5h4v-7h-1c-3.2,0-5-1.9-5-5c0-3.2,0.2-7,5-7h1v-1
		c0-0.7,1.3-2,2-2s2,1.3,2,2v1h5c0.7,0,1,1,1,1.7S49.7,34,49,34h-5v6H45z M78.7,81.5c-1.5,0-2.8-1.3-2.8-2.8s1.3-2.8,2.8-2.8
		c1.5,0,2.8,1.3,2.8,2.8S80.3,81.5,78.7,81.5z"/>
	<path id="XMLID_57_" fill="#C62828" d="M37,37c0,1.8,0.2,3,2,3h1v-6h-1C37.2,34,37,35.2,37,37z"/>
	<path id="XMLID_58_" fill="#C62828" d="M44,50h1c1.8,0,2-1.2,2-3s-0.2-4-2-4h-1V50z"/>
</g>
</svg>
