<?xml version="1.0" encoding="utf-8"?>
<!-- Generator: Adobe Illustrator 19.0.0, SVG Export Plug-In . SVG Version: 6.00 Build 0)  -->
<svg version="1.1" id="Layer_1" xmlns="http://www.w3.org/2000/svg" xmlns:xlink="http://www.w3.org/1999/xlink" x="0px" y="0px"
	 viewBox="0 0 96 64" style="enable-background:new 0 0 96 64;" xml:space="preserve">
<style type="text/css">
	.st0{fill:#FFFFFF;}
	.st1{clip-path:url(#SVGID_2_);fill:#919191;}
</style>
<rect width="96" height="64"/>
<g>
	<defs>
		<rect id="SVGID_1_" width="96" height="64"/>
	</defs>
	<clipPath id="SVGID_2_">
		<use xlink:href="#SVGID_1_"  style="overflow:visible;"/>
	</clipPath>
	<path fill="#919191" d="M61.1,31H49l-6.5-11.1c-0.7-1.3-0.1-2.9,1.3-3.3c1.3-0.4,2.8-0.6,4.2-0.6c7.4,0,13.5,5.2,15.2,12.1
		C63.6,29.5,62.5,31,61.1,31 M63.2,35.9C61.5,42.8,55.4,48,48,48c-1.7,0-3.3-0.3-4.8-0.8c-1.4-0.4-1.9-2.1-1.1-3.4L49,33h12.1
		C62.5,33,63.6,34.5,63.2,35.9 M36.8,43.2c-2.8-2.9-4.5-6.8-4.5-11.2c0-4.6,1.9-8.7,4.9-11.6c1-1,2.7-0.7,3.4,0.5l5.8,10.2
		c0.4,0.7,0.4,1.7-0.1,2.4l-6.1,9.3C39.4,44,37.7,44.2,36.8,43.2 M72.5,33.1v-2.2l-4.8-0.8c-0.1-1-0.3-2-0.6-3l4.3-2.4l-0.8-2.1
		l-4.9,0.9c-0.4-0.9-0.9-1.8-1.5-2.6l3.2-3.8l-1.4-1.7l-4.3,2.5c-0.7-0.7-1.5-1.3-2.3-1.9l1.8-4.7l-1.9-1.1L56.1,14
		c-0.9-0.4-1.8-0.7-2.8-1l0-5.1l-2.2-0.4l-1.7,4.8c-0.5,0-1-0.1-1.5-0.1c-0.5,0-1,0-1.5,0.1l-1.7-4.8l-2.2,0.4l0,5.1
		c-1,0.3-1.9,0.6-2.8,1l-3.2-3.9l-1.9,1.1l1.8,4.7c-0.8,0.6-1.6,1.2-2.3,1.9l-4.3-2.5L28.5,17l3.2,3.8c-0.6,0.8-1.1,1.7-1.5,2.6
		l-4.9-0.9l-0.8,2.1l4.3,2.4c-0.3,1-0.5,2-0.6,3l-4.8,0.8v2.2l4.8,0.8c0.1,1,0.3,2,0.6,3l-4.3,2.4l0.8,2.1l4.9-0.9
		c0.4,0.9,0.9,1.8,1.5,2.6L28.5,47l1.4,1.7l4.3-2.5c0.7,0.7,1.5,1.3,2.3,1.9l-1.8,4.7l1.9,1.1l3.2-3.9c0.9,0.4,1.8,0.7,2.8,1l0,5.1
		l2.2,0.4l1.7-4.8c0.5,0,1,0.1,1.5,0.1c0.5,0,1,0,1.5-0.1l1.7,4.8l2.2-0.4l0-5.1c1-0.3,1.9-0.6,2.8-1l3.2,3.9l1.9-1.1l-1.8-4.7
		c0.8-0.6,1.6-1.2,2.3-1.9l4.3,2.5l1.4-1.7l-3.2-3.8c0.6-0.8,1.1-1.7,1.5-2.6l4.9,0.9l0.8-2.1l-4.3-2.4c0.3-1,0.5-2,0.6-3L72.5,33.1
		z"/>
</g>
</svg>
