<?xml version="1.0" encoding="utf-8"?>
<!-- Generator: Adobe Illustrator 19.0.0, SVG Export Plug-In . SVG Version: 6.00 Build 0)  -->
<svg version="1.1" id="Layer_1" xmlns="http://www.w3.org/2000/svg" xmlns:xlink="http://www.w3.org/1999/xlink" x="0px" y="0px"
	 viewBox="0 0 108 80" style="enable-background:new 0 0 108 80;" xml:space="preserve">
<style type="text/css">
	.st0{fill:#C62828;}
</style>
<g id="XMLID_31_">
	<rect id="XMLID_52_" x="5" y="8" fill="#C62828" width="3" height="5"/>
	<rect id="XMLID_58_" x="5" y="16" fill="#C62828" width="3" height="5"/>
	<rect id="XMLID_165_" y="13" fill="#C62828" width="5" height="3"/>
	<rect id="XMLID_168_" x="8" y="13" fill="#C62828" width="5" height="3"/>
	<rect id="XMLID_169_" x="100" y="63" fill="#C62828" width="3" height="5"/>
	<rect id="XMLID_170_" x="100" y="71" fill="#C62828" width="3" height="5"/>
	<rect id="XMLID_172_" x="95" y="68" fill="#C62828" width="5" height="3"/>
	<rect id="XMLID_173_" x="103" y="68" fill="#C62828" width="5" height="3"/>
	<path id="XMLID_174_" fill="#C62828" d="M67,68l-29.7,0.3V11.6L19.1,2.7v0L67,3v24h3V2c0-1-1-2-2-2H18c-1,0-2,1-2,2v67c0,1,1,2,2,2
		h1.1v0.1L37.3,80v-9H68c1,0,2-1,2-2V44h-3V68z"/>
	<path id="XMLID_175_" fill="#C62828" d="M80.6,23.6c-0.7-0.7-1.8-0.7-2.5,0c-0.7,0.7-0.7,1.8,0,2.5L85,33H48c-1,0-2,1-2,2s1,2,2,2h37
		l-6.9,8c-0.7,0.7-0.7,1.8,0,2.5c0.7,0.7,1.8,0.7,2.5,0l10.4-10.7c0.7-0.7,0.7-1.8,0-2.5L80.6,23.6z"/>
</g>
</svg>
