<?xml version="1.0" encoding="utf-8"?>
<!-- Generator: Adobe Illustrator 19.0.0, SVG Export Plug-In . SVG Version: 6.00 Build 0)  -->
<svg version="1.1" id="Layer_1" xmlns="http://www.w3.org/2000/svg" xmlns:xlink="http://www.w3.org/1999/xlink" x="0px" y="0px"
	 viewBox="0 0 144 96" style="enable-background:new 0 0 144 96;" xml:space="preserve">
<style type="text/css">
	.st0{fill:#C72929;}
</style>
<path fill="#C72929" d="M105,50h6v23h-6V50z M102,70h-3V54h3V70z M74,37h-7v-7h7V37z M46,72h-3V50h3V72z M40,61h-7v-4h7V61z M102,51h-3
	v-8h-7l-8-6h-7v-7h10v-3H54v3h10v7h-7l-11,9h-6v8h-7V42h-3v33h3V64h7v11h8l9,6h15v-3H57l-8-6V48l10-8l25,0.5l6,4.5v4h3v-3h3v32h-3v3
	h6v-8h3v3h12V47h-12V51z"/>
<polygon fill="#C72929" points="84.5,56.4 74.6,56.4 81.2,47.1 68.5,47.1 60.6,63.1 68.9,63.1 65.3,75.6 "/>
<rect x="84" y="78" fill="#C72929" width="6" height="3"/>
<polygon fill="#C72929" points="84,78 84,70.5 81,70.5 75,78 75,81 81,81 81,78 "/>
<polygon fill="#C72929" points="81,87 83.9,87 84,81 81,81 "/>
<rect x="105" y="17" fill="#C72929" width="3" height="6"/>
<rect x="105" y="26" fill="#C72929" width="3" height="6"/>
<rect x="108" y="23" fill="#C72929" width="6" height="3"/>
<rect x="99" y="23" fill="#C72929" width="6" height="3"/>
<rect x="108" y="81" fill="#C72929" width="3" height="3"/>
<rect x="111" y="84" fill="#C72929" width="3" height="3"/>
<rect x="105" y="84" fill="#C72929" width="3" height="3"/>
<rect x="108" y="87" fill="#C72929" width="3" height="3"/>
<rect x="36" y="24" fill="#C72929" width="3" height="3"/>
<rect x="39" y="27" fill="#C72929" width="3" height="3"/>
<rect x="33" y="27" fill="#C72929" width="3" height="3"/>
<rect x="36" y="30" fill="#C72929" width="3" height="3"/>
</svg>
