<?xml version="1.0" encoding="utf-8"?>
<!-- Generator: Adobe Illustrator 19.0.0, SVG Export Plug-In . SVG Version: 6.00 Build 0)  -->
<svg version="1.1" id="Layer_1" xmlns="http://www.w3.org/2000/svg" xmlns:xlink="http://www.w3.org/1999/xlink" x="0px" y="0px"
	 viewBox="0 0 92 80" style="enable-background:new 0 0 92 80;" xml:space="preserve">
<style type="text/css">
	.st0{fill:#C62828;}
</style>
<g id="My_Watch_Tab_Bar_Icon_-_Active_19_">
	<g>
		<g>
			<g id="XMLID_45_">
				<g id="XMLID_52_">
					<g id="XMLID_58_">
						<rect id="XMLID_41_" x="85" y="17" fill="#C62828" width="3" height="4"/>
						<rect id="XMLID_40_" x="88" y="21" fill="#C62828" width="4" height="3"/>
						<rect id="XMLID_39_" x="85" y="24" fill="#C62828" width="3" height="4"/>
						<rect id="XMLID_38_" x="81" y="21" fill="#C62828" width="4" height="3"/>
					</g>
					<g id="XMLID_44_">
						<rect id="XMLID_37_" x="4.5" y="58" fill="#C62828" width="3" height="4.5"/>
						<rect id="XMLID_36_" x="7.5" y="62.5" fill="#C62828" width="4.5" height="3"/>
						<rect id="XMLID_32_" x="4.5" y="65.5" fill="#C62828" width="3" height="4.5"/>
						<rect id="XMLID_31_" y="62.5" fill="#C62828" width="4.5" height="3"/>
					</g>
				</g>
			</g>
		</g>
		<g id="surface1">
			<path fill="#C62828" d="M69,31v-8C69,10.1,58.9,0,46,0S23,10.1,23,23v8c-3.6,0.7-7,3.2-7,7v9c0,0.9,0.6,2,1.5,2s1.5-1.1,1.5-2v-9
				c0-2.6,2.4-4,5-4h44c2.6,0,5,2.4,5,5v33c0,2-2.2,3.4-4,4l0.4-8.8c0-0.9-0.7-1.6-1.6-1.6s-1.6,0.7-1.6,1.6L66,77H24
				c-2.6,0-5-2.4-5-5V60c0-0.9-0.6-2-1.5-2S16,59.1,16,60v12c0,4.3,3.8,8,8.1,8h43.8c4.3,0,8.1-3.7,8.1-8V39
				C76,35.2,72.6,31.7,69,31z M34,31v-8c0-6.5,5.5-11,12-11s12,5.5,12,12v7H34z M61,31v-7.6C61,15.2,54.3,9,46,9s-15,6.2-15,14.4V31
				h-5v-8c0-11.2,8.8-20,20-20s20,8.8,20,20v8H61z"/>
			<path id="XMLID_19_" fill="#C62828" d="M17.5,55c0.4,0,0.8-0.2,1.1-0.4c0.3-0.3,0.4-0.7,0.4-1.1c0-0.4-0.2-0.8-0.4-1.1
				c-0.3-0.3-0.7-0.4-1.1-0.4c-0.4,0-0.8,0.2-1.1,0.4c-0.3,0.3-0.4,0.7-0.4,1.1c0,0.4,0.2,0.8,0.4,1.1C16.7,54.8,17.1,55,17.5,55z"
				/>
			<path fill="#C62828" d="M46,71.6c2.6,0,4.7-2.1,4.7-4.7v-8.3c2.3-1.6,3.8-4.2,3.8-7c0-4.7-3.8-8.4-8.4-8.4c-4.7,0-8.4,3.8-8.4,8.4
				c0,2.8,1.4,5.4,3.7,7v8.3C41.3,69.5,43.4,71.6,46,71.6z"/>
			<path id="XMLID_2_" fill="#C62828" d="M68,62c0.5,0,1-0.2,1.4-0.6C69.8,61,70,60.5,70,60s-0.2-1-0.6-1.4C69,58.2,68.5,58,68,58
				c-0.5,0-1,0.2-1.4,0.6C66.2,59,66,59.5,66,60s0.2,1,0.6,1.4C67,61.8,67.5,62,68,62z"/>
		</g>
	</g>
</g>
</svg>
