<?xml version="1.0" encoding="utf-8"?>
<!-- Generator: Adobe Illustrator 21.0.0, SVG Export Plug-In . SVG Version: 6.00 Build 0)  -->
<svg version="1.1" id="Layer_1" xmlns="http://www.w3.org/2000/svg" xmlns:xlink="http://www.w3.org/1999/xlink" x="0px" y="0px"
	 viewBox="0 0 71.7 80" style="enable-background:new 0 0 71.7 80;" xml:space="preserve">
<style type="text/css">
	.st0{fill:#F57C00;}
</style>
<g id="My_Watch_Tab_Bar_Icon_-_Active_22_">
</g>
<g id="XMLID_37_">
	<path id="XMLID_54_" fill="#F57C00" d="M65.8,49V31c3.1-1.2,5.8-3.3,5.8-7.1c0-4.2-3.4-7.7-7.7-7.7c-2.3,0-4.4,1-5.8,2.6L43,10
		c0.3-0.8,0.4-1.6,0.4-2.5c0-4.2-3.4-7.7-7.7-7.7S28,3.2,28,7.5c0,0.9,0.1,1.7,0.4,2.5l-15.1,8.8c-1.4-1.6-3.5-2.6-5.8-2.6
		c-4.2,0-7.7,3.4-7.7,7.7c0,3.7,2.4,6.3,5.8,7.1v18C2.4,49.8,0,52.4,0,56.1c0,4.2,3.4,7.7,7.7,7.7c2.3,0,4.3-1,5.7-2.5L28.5,70
		c-0.2,0.8-0.4,1.5-0.4,2.4c0,4.2,3.4,7.7,7.7,7.7c4.2,0,7.7-3.4,7.7-7.7c0-0.8-0.1-1.6-0.4-2.4l15.2-8.8c1.4,1.6,3.4,2.5,5.7,2.5
		c4.2,0,7.7-3.4,7.7-7.7C71.7,52.4,68.9,49.1,65.8,49z M64,19.2c2.6,0,4.7,2.1,4.7,4.7s-2.1,4.7-4.7,4.7c-2.6,0-4.7-2.1-4.7-4.7
		C59.3,21.3,61.4,19.2,64,19.2z M3,23.9c0-2.6,2.1-4.7,4.7-4.7s4.7,2.1,4.7,4.7s-2.1,4.7-4.7,4.7S3,26.5,3,23.9z M35.8,77
		c-2.6,0-4.7-2.1-4.7-4.7s2.1-4.7,4.7-4.7c2.6,0,4.7,2.1,4.7,4.7S38.4,77,35.8,77z M41.7,67.4c-1.4-1.6-3.5-2.7-5.8-2.7
		s-4.4,1-5.8,2.7L15,58.7c0.3-0.8,0.5-1.7,0.5-2.6c0-3.8-2.9-6.4-6.5-7.1V31c3.6-0.6,6.5-3.3,6.5-7.1c0-0.9-0.1-1.7-0.4-2.5
		l15.1-8.8c1.4,1.6,3.5,2.6,5.8,2.6s4.4-1,5.8-2.6l15.1,8.8c-0.3,0.8-0.4,1.6-0.4,2.5c0,3.7,3,6.4,6.5,7.1v18
		c-3.5,0.7-6.5,3.3-6.5,7.1c0,0.9,0.2,1.8,0.5,2.6L41.7,67.4z"/>
	<path id="XMLID_58_" fill="#F57C00" d="M42.8,46v-5c0.9-0.9,2-2.7,2-4v-7c0-4.3-3.7-8-8-8h-2c-4.3,0-8,3.7-8,8v7c0,1.3,1.1,3.1,2,4v5
		c-1.7,0.9-5.9,3-9.7,6.2c-0.6,0.5-0.7,1.5-0.2,2.1s1.5,0.7,2.1,0.2c4.2-3.5,8.8-5.8,9.7-6.2c0.6-0.3,1.2-0.6,1.2-1.3v-7
		c0-0.5-0.4-1.1-0.8-1.3c-0.5-0.3-1.2-1.1-1.2-1.7v-7c0-2.7,2.3-5,5-5h2c2.7,0,5,2.3,5,5v7c0,0.6-0.7,1.3-1.1,1.7
		c-0.4,0.3-0.9,0.9-0.9,1.3v7c0,0.7,0.6,0.9,1.2,1.3c0.9,0.4,5.5,2.7,9.7,6.2c0.3,0.2,0.6,0.3,0.9,0.3c0.4,0,0.8-0.2,1.1-0.5
		c0.5-0.6,0.4-1.6-0.2-2.1C48.8,49,44.5,46.9,42.8,46z"/>
</g>
</svg>
