<?xml version="1.0" encoding="utf-8"?>
<!-- Generator: Adobe Illustrator 19.0.0, SVG Export Plug-In . SVG Version: 6.00 Build 0)  -->
<svg version="1.1" id="Layer_1" xmlns="http://www.w3.org/2000/svg" xmlns:xlink="http://www.w3.org/1999/xlink" x="0px" y="0px"
	 viewBox="0 0 84 84" style="enable-background:new 0 0 84 84;" xml:space="preserve">
<style type="text/css">
	.st0{fill:#C62828;}
</style>
<g>
	<g>
		<path id="XMLID_36_" fill="#C62828" d="M2.5,43.5c0.7,0,1.2-0.6,1.2-1.2c0-8.9,3.1-17.7,8.8-24.5c5-6.1,11.8-10.5,19.3-12.6l-3,2.8
			c-0.5,0.5-0.5,1.2-0.1,1.7c0.2,0.3,0.6,0.4,0.9,0.4c0.3,0,0.6-0.1,0.8-0.3l6.5-6c0.3-0.3,0.5-0.8,0.3-1.3s-0.5-0.8-1-0.9L27.8,0
			c-0.7-0.1-1.3,0.3-1.4,1c-0.1,0.7,0.3,1.3,1,1.4L30.4,3c-7.7,2.3-14.6,6.9-19.7,13.1c-6,7.3-9.4,16.6-9.4,26.1
			C1.3,42.9,1.9,43.5,2.5,43.5z"/>
		<path id="XMLID_32_" fill="#C62828" d="M83,26.4c-0.7-0.1-1.3,0.3-1.4,1L81,30.4c-2.3-7.6-6.8-14.5-13-19.6c-7.3-6-16.5-9.3-26-9.3
			c-0.7,0-1.2,0.5-1.2,1.2s0.6,1.2,1.2,1.2c8.9,0,17.6,3.1,24.4,8.7c6.1,5,10.4,11.8,12.5,19.2l-2.8-3c-0.5-0.5-1.2-0.5-1.7-0.1
			c-0.5,0.5-0.5,1.2-0.1,1.7l6,6.4c0.2,0.3,0.6,0.4,0.9,0.4c0.1,0,0.2,0,0.3,0c0.4-0.1,0.8-0.5,0.9-1l1.6-8.6
			C84.1,27.1,83.7,26.5,83,26.4z"/>
		<path id="XMLID_31_" fill="#C62828" d="M81.5,40.5c-0.7,0-1.2,0.6-1.2,1.2c0,8.9-3.1,17.7-8.8,24.5c-5,6.1-11.8,10.5-19.3,12.6l3-2.8
			c0.5-0.5,0.5-1.2,0.1-1.7c-0.5-0.5-1.2-0.5-1.7-0.1l-6.5,6c-0.3,0.3-0.5,0.8-0.3,1.3c0.1,0.5,0.5,0.8,1,0.9l8.7,1.6
			c0.1,0,0.1,0,0.2,0c0.6,0,1.1-0.4,1.2-1c0.1-0.7-0.3-1.3-1-1.4L53.6,81c7.7-2.3,14.6-6.9,19.7-13.1c6-7.3,9.4-16.6,9.4-26.1
			C82.7,41.1,82.1,40.5,81.5,40.5z"/>
		<path id="XMLID_30_" fill="#C62828" d="M42,80.1c-8.9,0-17.6-3.1-24.4-8.7c-6.1-5-10.4-11.8-12.5-19.2l2.8,3c0.5,0.5,1.2,0.5,1.7,0.1
			s0.5-1.2,0.1-1.7l-6-6.4c-0.3-0.3-0.8-0.5-1.2-0.3c-0.4,0.1-0.8,0.5-0.9,1L0,56.2c-0.1,0.7,0.3,1.3,1,1.4c0.1,0,0.1,0,0.2,0
			c0.6,0,1.1-0.4,1.2-1L3,53.6c2.3,7.6,6.8,14.5,13,19.6c7.3,6,16.5,9.3,26,9.3c0.7,0,1.2-0.5,1.2-1.2S42.7,80.1,42,80.1z"/>
		<path fill="#C62828" d="M55.4,62.7l4.9,3.8c0.5,0.4,1.1,0.4,1.6,0c0.8-0.7,1.6-1.4,2.4-2.2c0.8-0.8,1.5-1.6,2.2-2.4
			c0.4-0.5,0.4-1.1,0-1.6l-3.8-4.9c1.6-2.5,2.8-5.3,3.4-8.2l6.1-0.8c0.6-0.1,1.1-0.5,1.1-1.1c0.1-1.1,0.2-2.2,0.2-3.2
			s-0.1-2.2-0.2-3.2c-0.1-0.6-0.5-1.1-1.1-1.1l-6.1-0.8c-0.6-2.9-1.8-5.7-3.4-8.2l3.8-4.9c0.4-0.5,0.4-1.1,0-1.6
			c-0.7-0.8-1.4-1.6-2.2-2.4c-0.8-0.8-1.6-1.5-2.4-2.2c-0.5-0.4-1.1-0.4-1.6,0l-4.9,3.8c-2.5-1.6-5.3-2.8-8.2-3.4l-0.8-6.1
			c-0.1-0.6-0.5-1.1-1.1-1.1c-2.1-0.2-4.3-0.2-6.5,0c-0.6,0.1-1.1,0.5-1.1,1.1l-0.8,6.1c-2.9,0.6-5.7,1.8-8.2,3.4l-4.9-3.8
			c-0.5-0.4-1.1-0.4-1.6,0c-0.8,0.7-1.6,1.4-2.4,2.2c-0.8,0.8-1.5,1.6-2.2,2.4c-0.4,0.5-0.4,1.1,0,1.6l3.8,4.9
			c-1.6,2.5-2.8,5.3-3.4,8.2l-6.1,0.8c-0.6,0.1-1.1,0.5-1.1,1.1c-0.1,1.1-0.2,2.2-0.2,3.2c0,1.1,0.1,2.2,0.2,3.2
			c0.1,0.6,0.5,1.1,1.1,1.1l6.1,0.8c0.6,2.9,1.8,5.7,3.4,8.2l-3.8,4.9c-0.4,0.5-0.4,1.1,0,1.6c0.7,0.8,1.4,1.6,2.2,2.4
			c0.8,0.8,1.6,1.5,2.4,2.2c0.5,0.4,1.1,0.4,1.6,0l4.9-3.8c2.5,1.6,5.3,2.8,8.2,3.4l0.8,6.1c0.1,0.6,0.5,1.1,1.1,1.1
			c1.1,0.1,2.2,0.2,3.2,0.2c1.1,0,2.2-0.1,3.2-0.2c0.6-0.1,1.1-0.5,1.1-1.1l0.8-6.1C50.1,65.4,52.9,64.3,55.4,62.7z M45.8,63.7
			c-0.6,0.1-1,0.5-1.1,1.1l-0.8,6c-1.3,0.1-2.6,0.1-3.9,0l-0.8-6c-0.1-0.6-0.5-1-1.1-1.1C35,63.2,32,61.9,29.3,60
			c-0.5-0.3-1.1-0.3-1.5,0L23,63.8c-0.5-0.4-1-0.9-1.4-1.3c-0.5-0.5-0.9-0.9-1.3-1.4l3.7-4.8c0.3-0.4,0.4-1.1,0-1.5
			c-1.9-2.7-3.1-5.7-3.7-8.9c-0.1-0.6-0.5-1-1.1-1.1l-6-0.8c0-0.7-0.1-1.3-0.1-2c0-0.7,0-1.3,0.1-2l6-0.8c0.6-0.1,1-0.5,1.1-1.1
			c0.6-3.2,1.8-6.2,3.7-8.9c0.3-0.5,0.3-1.1,0-1.5L20.2,23c0.4-0.5,0.9-1,1.3-1.4c0.5-0.5,0.9-0.9,1.4-1.3l4.8,3.7
			c0.4,0.3,1.1,0.4,1.5,0c2.7-1.9,5.7-3.1,8.9-3.7c0.6-0.1,1-0.5,1.1-1.1l0.8-6c1.3-0.1,2.6-0.1,3.9,0l0.8,6c0.1,0.6,0.5,1,1.1,1.1
			c3.2,0.6,6.2,1.8,8.9,3.7c0.5,0.3,1.1,0.3,1.5,0l4.8-3.7c0.5,0.4,1,0.9,1.4,1.3c0.5,0.5,0.9,0.9,1.3,1.4l-3.7,4.8
			c-0.3,0.4-0.4,1.1,0,1.5c1.9,2.7,3.1,5.7,3.7,8.9c0.1,0.6,0.5,1,1.1,1.1l6,0.8c0,0.7,0.1,1.3,0.1,2c0,0.7,0,1.3-0.1,2l-6,0.8
			c-0.6,0.1-1,0.5-1.1,1.1C63.2,49,61.9,52,60,54.7c-0.3,0.5-0.3,1.1,0,1.5l3.7,4.8c-0.4,0.5-0.9,1-1.3,1.4
			c-0.5,0.5-0.9,0.9-1.4,1.3l-4.8-3.7c-0.4-0.3-1.1-0.4-1.5,0C52,61.9,49,63.2,45.8,63.7z"/>
		<g id="XMLID_38_">
			<path id="XMLID_39_" fill="#C62828" d="M37,38c0,1.6,0.2,2,2,2h1v-5h-1C37.2,35,37,36.4,37,38z"/>
			<path id="XMLID_40_" fill="#C62828" d="M44,49h1c1.8,0,2-1.4,2-3s-0.2-3-2-3h-1V49z"/>
			<path id="XMLID_43_" fill="#C62828" d="M42,25.5c-9.1,0-16.5,7.4-16.5,16.5c0,9.1,7.4,16.5,16.5,16.5c9.1,0,16.5-7.4,16.5-16.5
				C58.5,32.9,51.1,25.5,42,25.5z M45,40c3.3,0,5,3.4,5,6.3S48.3,52,45,52h-1v2c0,0.7-1.3,1-2,1c-0.7,0-2-0.3-2-1v-2h-4
				c-0.7,0-2,0-2-1.5s1.3-1.5,2-1.5h4l0-6l-1,0c-3.2,0-5-1-5-3.9c0-2.9,0.2-7.1,5-7.1h1v-1c0-0.7,0-2,2-2c2,0,2,1.3,2,2v1h4
				c0.7,0,2,0,2,1.5S48.7,35,48,35h-4v5H45z"/>
		</g>
	</g>
</g>
</svg>
