<?xml version="1.0" encoding="utf-8"?>
<!-- Generator: Adobe Illustrator 19.0.0, SVG Export Plug-In . SVG Version: 6.00 Build 0)  -->
<svg version="1.1" id="Layer_1" xmlns="http://www.w3.org/2000/svg" xmlns:xlink="http://www.w3.org/1999/xlink" x="0px" y="0px"
	 viewBox="0 0 67.2 80" style="enable-background:new 0 0 67.2 80;" xml:space="preserve">
<style type="text/css">
	.st0{fill:#C62828;}
</style>
<g id="XMLID_2_">
	<path id="XMLID_56_" fill="#C62828" d="M66.2,35.9l-3.8-0.4c-0.4-1.6-1-3.1-1.9-4.5l2.4-2.9c0.4-0.4,0.3-1.1-0.1-1.5l-4.3-4.3
		c-0.4-0.4-1-0.4-1.5-0.1l-2.9,2.4c-1.4-0.8-2.9-1.5-4.5-1.9l-0.4-3.8c-0.1-0.6-0.5-1-1.1-1H47V8.3C47,3.7,42.7,0,38.1,0h-29
		C4.5,0,0,3.7,0,8.3v63.3C0,76.3,4.5,80,9.1,80h29c4.6,0,8.3-3.7,8.3-8.3v-9.8h2c0.6,0,1-0.4,1.1-1l0.4-3.8c1.6-0.4,3.1-1,4.5-1.9
		l2.9,2.4c0.4,0.4,1.1,0.3,1.5-0.1l4.3-4.3c0.4-0.4,0.4-1,0.1-1.5L60.6,49c0.8-1.4,1.5-2.9,1.9-4.5l3.7-0.4c0.6-0.1,1-0.5,1-1.1
		v-6.1C67.2,36.4,66.8,35.9,66.2,35.9z M44,72c0,3.4-2.5,5.8-5.9,5.8h-29C5.7,77.8,3,75.4,3,72l0-5l41,0V72z M44,65H3V13h29
		c0.6,0,1-0.4,1-1c0-0.6-0.4-1-1-1H3V8c0-3.4,2.6-5,6-5h29c3.4,0,6,1.6,6,5v3h-2c-0.6,0-1,0.4-1,1c0,0.6,0.4,1,1,1h2v5l-1.7,0.1
		c-0.6,0-1,0.4-1.1,1l-0.4,3.8c-1.6,0.4-3.1,1-4.5,1.9l-2.9-2.4c-0.4-0.4-1.1-0.3-1.5,0.1l-4.3,4.3c-0.4,0.4-0.4,1-0.1,1.5l2.4,2.9
		c-0.8,1.4-1.5,2.9-1.9,4.5l-3.8,0.4c-0.6,0.1-1,0.5-1,1.1v6.1c0,0.6,0.4,1,1,1.1l3.8,0.4c0.4,1.6,1,3.1,1.9,4.5l-2.4,2.9
		c-0.4,0.4-0.3,1.1,0.1,1.5l4.3,4.3c0.4,0.4,1,0.4,1.5,0.1l2.9-2.4c1.4,0.8,2.9,1.5,4.5,1.9l0.4,3.8c0.1,0.6,0.5,1,1.1,1L44,62V65z
		 M65,42.1l-3.5,0.3c-0.5,0-0.9,0.4-1,0.9c-0.4,1.9-1.2,3.6-2.2,5.2c-0.3,0.4-0.2,0.9,0.1,1.3l2.3,2.7l-2.9,2.9l-2.7-2.3
		c-0.4-0.3-0.9-0.3-1.3-0.1c-1.6,1-3.3,1.8-5.2,2.2c-0.5,0.1-0.8,0.5-0.9,1l-0.3,3.5h-4.1l-0.3-3.5c0-0.5-0.4-0.9-0.9-1
		c-1.9-0.4-3.6-1.2-5.2-2.2c-0.4-0.3-0.9-0.2-1.3,0.1l-2.7,2.3L30,52.5l2.3-2.7c0.3-0.4,0.3-0.9,0.1-1.3c-1-1.6-1.8-3.3-2.2-5.2
		c-0.1-0.5-0.5-0.8-1-0.9l-3.5-0.3v-4.1l3.5-0.3c0.5,0,0.9-0.4,1-0.9c0.4-1.9,1.2-3.6,2.2-5.2c0.3-0.4,0.2-0.9-0.1-1.3L30,27.5
		l2.9-2.9l2.7,2.3c0.4,0.3,0.9,0.3,1.3,0.1c1.6-1,3.3-1.8,5.2-2.2c0.5-0.1,0.8-0.5,0.9-1l0.3-3.5h4.1l0.3,3.5c0,0.5,0.4,0.9,0.9,1
		c1.9,0.4,3.6,1.2,5.2,2.2c0.4,0.3,0.9,0.2,1.3-0.1l2.7-2.3l2.9,2.9l-2.3,2.7c-0.3,0.4-0.3,0.9-0.1,1.3c1,1.6,1.8,3.3,2.2,5.2
		c0.1,0.5,0.5,0.8,1,0.9l3.5,0.3V42.1z"/>
	<path id="XMLID_61_" fill="#C62828" d="M36,13H38c0.6,0,1-0.4,1-1c0-0.6-0.5-1-1-1H36c-0.6,0-1,0.4-1,1C35,12.6,35.5,13,36,13z"/>
	<path id="XMLID_64_" fill="#C62828" d="M23.6,76.2c2.1,0,3.8-1.7,3.8-3.8s-1.7-3.8-3.8-3.8s-3.8,1.7-3.8,3.8
		C19.8,74.5,21.5,76.2,23.6,76.2z M23.6,70.8c0.9,0,1.6,0.7,1.6,1.6S24.5,74,23.6,74S22,73.3,22,72.4C22,71.5,22.7,70.8,23.6,70.8z"
		/>
	<path id="XMLID_86_" fill="#C62828" d="M45.4,27c-7.2,0-13,5.8-13,13c0,7.2,5.8,13,13,13c7.2,0,13-5.8,13-13S52.5,27,45.4,27z
		 M51,37.7l-6.3,6.2c-0.4,0.4-1.1,0.4-1.5,0l-3.5-3.4c-0.4-0.4-0.4-1.1,0-1.5c0.4-0.4,1.1-0.4,1.5,0l2.8,2.7l5.6-5.4c0,0,0,0,0,0
		c0.4-0.4,1.1-0.4,1.5,0C51.5,36.6,51.4,37.3,51,37.7z"/>
	<path id="XMLID_87_" fill="#C62828" d="M20.5,37h-2c-0.8,0-1.5,0.4-1.5,1c0,0.6,0.7,1,1.5,1h2c0.8,0,1.5-0.4,1.5-1
		C22,37.4,21.3,37,20.5,37z"/>
	<path id="XMLID_88_" fill="#C62828" d="M7.1,39h6.8c0.6,0,1.1-0.4,1.1-1c0-0.6-0.5-1-1.1-1H7.1C6.5,37,6,37.4,6,38
		C6,38.6,6.5,39,7.1,39z"/>
	<path id="XMLID_89_" fill="#C62828" d="M20.8,46h-7.6c-0.7,0-1.2,0.4-1.2,1c0,0.6,0.5,1,1.2,1h7.6c0.7,0,1.2-0.4,1.2-1
		C22,46.4,21.5,46,20.8,46z"/>
	<path id="XMLID_90_" fill="#C62828" d="M7.3,48h1.4c0.7,0,1.3-0.4,1.3-1c0-0.6-0.6-1-1.3-1H7.3C6.6,46,6,46.4,6,47
		C6,47.6,6.6,48,7.3,48z"/>
	<path id="XMLID_91_" fill="#C62828" d="M25.8,55h-5.6c-0.7,0-1.2,0.4-1.2,1c0,0.6,0.5,1,1.2,1h5.6c0.7,0,1.2-0.4,1.2-1
		C27,55.4,26.5,55,25.8,55z"/>
	<path id="XMLID_92_" fill="#C62828" d="M15.9,55H7.1C6.5,55,6,55.4,6,56c0,0.6,0.5,1,1.1,1h8.7c0.6,0,1.1-0.4,1.1-1
		C17,55.4,16.5,55,15.9,55z"/>
	<path id="XMLID_93_" fill="#C62828" d="M15.1,29h6.8c0.6,0,1.1-0.4,1.1-1c0-0.5-0.5-1-1.1-1h-6.8c-0.6,0-1.1,0.4-1.1,1
		C14,28.5,14.5,29,15.1,29z"/>
	<path id="XMLID_94_" fill="#C62828" d="M7.1,29h2.9c0.6,0,1.1-0.4,1.1-1c0-0.5-0.5-1-1.1-1H7.1C6.5,27,6,27.4,6,28
		C6,28.5,6.5,29,7.1,29z"/>
</g>
</svg>
