<?xml version="1.0" encoding="utf-8"?>
<!-- Generator: Adobe Illustrator 19.0.0, SVG Export Plug-In . SVG Version: 6.00 Build 0)  -->
<svg version="1.1" id="Layer_1" xmlns="http://www.w3.org/2000/svg" xmlns:xlink="http://www.w3.org/1999/xlink" x="0px" y="0px"
	 viewBox="0 0 96 72" style="enable-background:new 0 0 96 72;" xml:space="preserve">
<style type="text/css">
	.st0{fill:#C62828;}
</style>
<g id="XMLID_69_">
	<rect id="XMLID_70_" x="88" y="49" fill="#C62828" width="3" height="5"/>
	<rect id="XMLID_71_" x="91" y="54" fill="#C62828" width="5" height="3"/>
	<rect id="XMLID_78_" x="88" y="57" fill="#C62828" width="3" height="5"/>
	<rect id="XMLID_79_" x="83" y="54" fill="#C62828" width="5" height="3"/>
	<rect id="XMLID_80_" x="85" y="4" fill="#C62828" width="3" height="5"/>
	<rect id="XMLID_81_" x="88" y="9" fill="#C62828" width="5" height="3"/>
	<rect id="XMLID_82_" x="85" y="12" fill="#C62828" width="3" height="5"/>
	<rect id="XMLID_83_" x="80" y="9" fill="#C62828" width="5" height="3"/>
	<rect id="XMLID_84_" x="5" y="13" fill="#C62828" width="3" height="5"/>
	<rect id="XMLID_85_" x="8" y="18" fill="#C62828" width="5" height="3"/>
	<rect id="XMLID_86_" x="5" y="21" fill="#C62828" width="3" height="5"/>
	<rect id="XMLID_87_" x="0" y="18" fill="#C62828" width="5" height="3"/>
	<rect id="XMLID_88_" x="50" y="14" fill="#C62828" width="14" height="3"/>
	<rect id="XMLID_89_" x="50" y="21" fill="#C62828" width="18" height="3"/>
	<rect id="XMLID_90_" x="50" y="28" fill="#C62828" width="20" height="3"/>
	<rect id="XMLID_91_" x="50" y="35" fill="#C62828" width="20" height="3"/>
	<rect id="XMLID_92_" x="35" y="57" fill="#C62828" width="35" height="3"/>
	<rect id="XMLID_93_" x="35" y="63" fill="#C62828" width="35" height="3"/>
	<path id="XMLID_94_" fill="#C62828" d="M36.5,14c2.1,0,3.8-1.7,3.8-3.8s-1.7-3.8-3.8-3.8s-3.8,1.7-3.8,3.8S34.4,14,36.5,14z"/>
	<polygon id="XMLID_95_" fill="#C62828" points="44,31 41,31 41,16 29,16 29,25 33,25 33,32 29,32 29,38 44,38 	"/>
	<rect id="XMLID_96_" x="35" y="45" fill="#C62828" width="9" height="9"/>
	<rect id="XMLID_97_" x="48" y="45" fill="#C62828" width="9" height="9"/>
	<rect id="XMLID_98_" x="61" y="45" fill="#C62828" width="9" height="9"/>
	<rect id="XMLID_99_" x="28" y="63" fill="#C62828" width="3" height="3"/>
	<rect id="XMLID_100_" x="28" y="57" fill="#C62828" width="3" height="3"/>
	<rect id="XMLID_101_" x="28" y="51" fill="#C62828" width="3" height="3"/>
	<rect id="XMLID_102_" x="28" y="45" fill="#C62828" width="3" height="3"/>
	<path id="XMLID_105_" fill="#C62828" d="M74,0H23c-2.2,0-4,1.8-4,4v64c0,2.2,1.8,4,4,4h51c2.2,0,4-1.8,4-4V4C78,1.8,76.2,0,74,0z
		 M75,68c0,0.6-0.4,1-1,1H23c-0.6,0-1-0.4-1-1V4c0-0.6,0.4-1,1-1h51c0.6,0,1,0.4,1,1V68z"/>
</g>
</svg>
