<?xml version="1.0" encoding="utf-8"?>
<!-- Generator: Adobe Illustrator 19.0.0, SVG Export Plug-In . SVG Version: 6.00 Build 0)  -->
<svg version="1.1" id="Layer_1" xmlns="http://www.w3.org/2000/svg" xmlns:xlink="http://www.w3.org/1999/xlink" x="0px" y="0px"
	 viewBox="0 0 96 64" style="enable-background:new 0 0 96 64;" xml:space="preserve">
<style type="text/css">
	.st0{fill:#FFFFFF;}
	.st1{clip-path:url(#SVGID_2_);fill:#919191;}
</style>
<rect x="0.1" fill="white" width="95.9" height="64"/>
<g>
	<defs>
		<rect id="SVGID_1_" width="96" height="64"/>
	</defs>
	<clipPath id="SVGID_2_">
		<use xlink:href="#SVGID_1_"  style="overflow:visible;"/>
	</clipPath>
	<path fill="#919191" d="M26.1,50c0.6,0,1-0.4,1-1V14h-2v35C25.1,49.6,25.5,50,26.1,50 M73.1,14h-42v36c0,0.7-0.2,1.4-0.6,2h40.6
		c1.1,0,2-0.9,2-2V14z M75.1,12v38c0,2.2-1.8,4-4,4h-46c-2.2,0-4-1.8-4-4V16h2v34c0,1.1,0.9,2,2,2h2c1.1,0,2-0.9,2-2V12H75.1z
		 M59.1,48h10v-2h-10V48z M59.1,44h10v-2h-10V44z M59.1,40h10v-2h-10V40z M47.1,48h10v-2h-10V48z M47.1,44h10v-2h-10V44z M47.1,40
		h10v-2h-10V40z M45.1,46h-10v2h10V46z M45.1,42h-10v2h10V42z M45.1,38h-10v2h10V38z M69.1,32h-34v2h34V32z M69.1,20h-34v-2h34V20z"
		/>
</g>
</svg>
