<?xml version="1.0" encoding="utf-8"?>
<!-- Generator: Adobe Illustrator 19.0.0, SVG Export Plug-In . SVG Version: 6.00 Build 0)  -->
<svg version="1.1" id="Layer_1" xmlns="http://www.w3.org/2000/svg" xmlns:xlink="http://www.w3.org/1999/xlink" x="0px" y="0px"
	 viewBox="0 0 107 80.5" style="enable-background:new 0 0 107 80.5;" xml:space="preserve">
<style type="text/css">
	.st0{fill:#C62828;}
</style>
<g id="XMLID_2_">
	<rect id="XMLID_3_" x="27" y="59.5" fill="#C62828" width="22" height="3"/>
	<rect id="XMLID_19_" x="27" y="52.5" fill="#C62828" width="20" height="3"/>
	<rect id="XMLID_20_" x="61" y="52.5" fill="#C62828" width="21" height="3"/>
	<rect id="XMLID_29_" x="59" y="59.5" fill="#C62828" width="23" height="3"/>
	<rect id="XMLID_30_" x="100" y="34.5" fill="#C62828" width="3" height="4"/>
	<rect id="XMLID_31_" x="103" y="38.5" fill="#C62828" width="4" height="3"/>
	<rect id="XMLID_32_" x="100" y="41.5" fill="#C62828" width="3" height="4"/>
	<rect id="XMLID_36_" x="96" y="38.5" fill="#C62828" width="4" height="3"/>
	<path id="XMLID_37_" fill="#C62828" d="M49.5,19.5c0,1.7-0.2,3,1.5,3h1.5v-6H51C49.3,16.5,49.5,17.8,49.5,19.5z"/>
	<path id="XMLID_38_" fill="#C62828" d="M58.5,28.5c0-1.7,0.2-3-1.5-3h-1.5v6H57C58.7,31.5,58.5,30.2,58.5,28.5z"/>
	<path id="XMLID_41_" fill="#C62828" d="M90.5,15.5H76.7c-0.4-1.2-1-2.3-1.6-3.4c0,0,0-0.1,0-0.1c0,0-0.1-0.1-0.1-0.1
		c-2.1-3.5-5-6.5-8.6-8.6c0,0-0.1-0.1-0.1-0.1c0,0-0.1,0-0.1,0c-7.4-4.2-16.4-4.2-23.8,0c0,0-0.1,0-0.1,0c0,0-0.1,0.1-0.1,0.1
		c-3.5,2.1-6.5,5-8.6,8.6c0,0-0.1,0.1-0.1,0.1c0,0,0,0.1,0,0.1c-0.6,1.1-1.2,2.2-1.6,3.4H18.5v2h-5v59c0,0,29,0,34,0
		c1,2.4,4,4,6.8,4c2.7,0,5.3-1.7,6.3-4c5,0,33,0,33,0v-58h-3V15.5z M75.7,22.7h-2.5c-0.2-2.5-0.8-4.9-1.9-7.1l2.2-1.3
		C74.7,17,75.5,19.8,75.7,22.7z M75.7,25.3c-0.2,2.9-0.9,5.7-2.2,8.3l-2.2-1.3c1.1-2.2,1.7-4.6,1.9-7.1H75.7z M66.1,6.1
		c2.4,1.6,4.5,3.7,6.1,6.1L70,13.5c-1.4-2-3.1-3.8-5.2-5.2L66.1,6.1z M70,34.5l2.2,1.3c-1.6,2.4-3.7,4.5-6.1,6.1l-1.3-2.2
		C66.8,38.4,68.6,36.6,70,34.5z M55.5,2.6c2.9,0.2,5.7,0.9,8.3,2.2L62.6,7c-2.2-1.1-4.6-1.7-7.1-1.9V2.6z M63.9,43.2
		c-2.6,1.3-5.4,2.1-8.3,2.2v-2.5c2.5-0.2,4.9-0.8,7.1-1.9L63.9,43.2z M54,10.5c0.7,0,1.5,0.8,1.5,1.5v1.5H60c0.7,0,1.5,0.8,1.5,1.5
		s-0.8,1.5-1.5,1.5h-4.5v6H57c3.1,0,4.5,2.9,4.5,6s-1.4,6-4.5,6h-1.5V36c0,0.7-0.8,1.5-1.5,1.5s-1.5-0.8-1.5-1.5v-1.5H48
		c-0.7,0-1.5-0.8-1.5-1.5s0.8-1.5,1.5-1.5h4.5v-6H51c-3,0-4.5-1.5-4.5-4.5c0-3.1,0-7.5,4.5-7.5h1.5V12C52.5,11.3,53.3,10.5,54,10.5z
		 M53,2.6v2.5c-2.5,0.2-4.9,0.8-7.1,1.9l-1.3-2.2C47.2,3.5,50.1,2.8,53,2.6z M45.9,41c2.2,1.1,4.6,1.7,7.1,1.9v2.5
		c-2.9-0.2-5.7-0.9-8.3-2.2L45.9,41z M42.4,6.1l1.3,2.2c-2.1,1.4-3.8,3.1-5.2,5.2l-2.2-1.3C37.9,9.8,40,7.7,42.4,6.1z M43.7,39.7
		l-1.3,2.2c-2.4-1.6-4.5-3.7-6.1-6.1l2.2-1.3C39.9,36.6,41.7,38.4,43.7,39.7z M35.1,14.4l2.2,1.3c-1.1,2.2-1.7,4.6-1.9,7.1h-2.5
		C33,19.8,33.8,17,35.1,14.4z M35.4,25.3c0.2,2.5,0.8,4.9,1.9,7.1l-2.2,1.3c-1.3-2.6-2.1-5.4-2.2-8.3H35.4z M23.5,18.5h7.4
		c-1.4,5.8-0.6,12,2.5,17.4c0,0,0,0.1,0,0.1c0,0.1,0.1,0.1,0.2,0.2c2.1,3.5,5,6.4,8.5,8.5c0,0,0.1,0.1,0.1,0.1c0.1,0,0.1,0,0.2,0.1
		c7.3,4.2,16.3,4.2,23.7,0c0.1,0,0.1,0,0.2-0.1c0,0,0.1-0.1,0.1-0.1c3.5-2.1,6.4-5,8.5-8.5c0.1-0.1,0.1-0.1,0.2-0.2c0,0,0-0.1,0-0.1
		c3.1-5.3,3.9-11.6,2.5-17.4h7.9v49h-30v-11h-3v11h-29V18.5z M90.5,73.5h-32c0,2.1-2.1,4.4-4.3,4.4s-4.8-2.3-4.8-4.4h-33v-53h4v50
		h68v-50h2V73.5z"/>
	<rect id="XMLID_62_" x="4" y="3.5" fill="#C62828" width="3" height="4"/>
	<rect id="XMLID_63_" x="7" y="7.5" fill="#C62828" width="4" height="3"/>
	<rect id="XMLID_64_" x="4" y="10.5" fill="#C62828" width="3" height="4"/>
	<rect id="XMLID_65_" y="7.5" fill="#C62828" width="4" height="3"/>
</g>
</svg>
