<?xml version="1.0" encoding="utf-8"?>
<!-- Generator: Adobe Illustrator 19.0.0, SVG Export Plug-In . SVG Version: 6.00 Build 0)  -->
<svg version="1.1" id="Layer_1" xmlns="http://www.w3.org/2000/svg" xmlns:xlink="http://www.w3.org/1999/xlink" x="0px" y="0px"
	 viewBox="0 0 90.8 84.8" style="enable-background:new 0 0 90.8 84.8;" xml:space="preserve">
<style type="text/css">
	.st0{fill:#C62828;}
</style>
<g id="XMLID_19_">
	<path id="XMLID_30_" fill="#C62828" d="M9.9,32.2l0.3,2.8c0,0.5,0.4,1,0.8,1.2c1.3,0.6,2.6,1,4,1.3c0.5,0.1,1.1-0.1,1.4-0.5l1.9-2.1
		h1.1l1.9,2.1c0.3,0.3,0.7,0.5,1.1,0.5c0.1,0,0.2,0,0.3,0c1.4-0.3,2.7-0.7,4-1.3c0.5-0.2,0.8-0.7,0.8-1.2l0.3-2.8
		c0.3-0.2,0.7-0.5,1-0.7l2.7,0.6c0.5,0.1,1.1-0.1,1.4-0.4c0.9-1,1.8-2.2,2.5-3.4c0.2-0.4,0.2-1,0-1.4l-1.4-2.4
		c0.1-0.4,0.3-0.8,0.4-1.2l2.5-1.1c0.5-0.2,0.9-0.7,0.9-1.3v-3.9c0-0.6-0.3-1.1-0.9-1.3l-2.5-1.1c-0.1-0.4-0.2-0.8-0.4-1.2l1.4-2.4
		c0.3-0.4,0.3-1,0-1.4c-0.7-1.2-1.5-2.4-2.5-3.4c-0.4-0.4-0.9-0.6-1.4-0.4l-2.7,0.6c-0.3-0.2-0.6-0.5-1-0.7l-0.3-2.8
		c0-0.5-0.4-1-0.8-1.2c-1.3-0.6-2.6-1-4-1.3c-0.5-0.1-1.1,0.1-1.4,0.5l-1.9,2.1h-1.1l-1.9-2.1C16,0.1,15.5-0.1,14.9,0
		c-1.4,0.3-2.7,0.7-4,1.3c-0.5,0.2-0.8,0.7-0.8,1.2L9.9,5.3c-0.3,0.2-0.7,0.5-1,0.7L6.2,5.4C5.7,5.3,5.2,5.5,4.8,5.9
		C3.9,6.9,3,8.1,2.4,9.3c-0.2,0.4-0.2,1,0,1.4l1.4,2.4c-0.1,0.4-0.3,0.8-0.4,1.2l-2.5,1.1C0.3,15.7,0,16.2,0,16.8v3.9
		c0,0.6,0.3,1.1,0.9,1.3l2.5,1.1c0.1,0.4,0.2,0.8,0.4,1.2l-1.4,2.4c-0.3,0.4-0.3,1,0,1.4c0.7,1.2,1.5,2.4,2.5,3.4
		c0.4,0.4,0.9,0.6,1.4,0.4l2.7-0.6C9.2,31.7,9.5,31.9,9.9,32.2z M5.3,27.5l1.3-2.3c0.2-0.4,0.3-0.9,0.1-1.3
		c-0.3-0.7-0.5-1.4-0.7-2.1c-0.1-0.4-0.4-0.8-0.8-1l-2.3-1v-2l2.3-1c0.4-0.2,0.7-0.6,0.8-1c0.2-0.7,0.4-1.4,0.7-2.1
		c0.2-0.4,0.1-0.9-0.1-1.3L5.3,10C5.7,9.5,6,9,6.4,8.5L8.9,9c0.5,0.1,0.9,0,1.3-0.3c0.6-0.5,1.2-0.9,1.8-1.3
		c0.4-0.2,0.6-0.6,0.7-1.1l0.2-2.6c0.6-0.2,1.2-0.4,1.8-0.6l1.7,2c0.3,0.3,0.7,0.5,1.1,0.5H20c0.4,0,0.8-0.2,1.1-0.5l1.7-2
		c0.6,0.2,1.2,0.4,1.8,0.6l0.2,2.6c0,0.5,0.3,0.9,0.7,1.1c0.6,0.4,1.2,0.8,1.8,1.3C27.6,9,28.1,9.1,28.6,9l2.5-0.6
		c0.4,0.5,0.8,1,1.1,1.6l-1.3,2.3c-0.2,0.4-0.3,0.9-0.1,1.3c0.3,0.7,0.5,1.4,0.7,2.1c0.1,0.4,0.4,0.8,0.8,1l2.3,1v2h0l-2.3,1
		c-0.4,0.2-0.7,0.6-0.8,1c-0.2,0.7-0.4,1.4-0.7,2.1c-0.2,0.4-0.1,0.9,0.1,1.3l1.3,2.3c-0.3,0.5-0.7,1.1-1.1,1.6l-2.5-0.6
		c-0.5-0.1-0.9,0-1.3,0.3c-0.6,0.5-1.2,0.9-1.8,1.3c-0.4,0.2-0.6,0.6-0.7,1.1l-0.2,2.6c-0.6,0.2-1.2,0.4-1.8,0.6l-1.7-2
		C20.8,32.2,20.4,32,20,32h-2.4c-0.4,0-0.8,0.2-1.1,0.5l-1.7,2c-0.6-0.2-1.2-0.4-1.8-0.6l-0.2-2.6c0-0.5-0.3-0.9-0.7-1.1
		c-0.6-0.4-1.2-0.8-1.8-1.3c-0.3-0.3-0.8-0.4-1.3-0.3l-2.5,0.6C6,28.5,5.7,28,5.3,27.5z"/>
	<path id="XMLID_62_" fill="#C62828" d="M18.8,28.8c5.5,0,10-4.5,10-10c0-5.5-4.5-10-10-10c-5.5,0-10,4.5-10,10
		C8.8,24.3,13.2,28.7,18.8,28.8z M18.8,11.6c3.9,0,7.1,3.2,7.1,7.1s-3.2,7.1-7.1,7.1s-7.1-3.2-7.1-7.1
		C11.6,14.8,14.8,11.6,18.8,11.6z"/>
	<path id="XMLID_65_" fill="#C62828" d="M53.9,18.7l2,0.9c0.1,0.3,0.2,0.5,0.3,0.8L55,22.3c-0.3,0.4-0.3,1,0,1.4c0.6,1,1.3,2,2.1,2.9
		c0.3,0.4,0.9,0.6,1.4,0.4l2.1-0.5c0.2,0.2,0.4,0.3,0.6,0.5l0.2,2.2c0,0.5,0.4,1,0.8,1.2c1.1,0.5,2.2,0.9,3.3,1.1
		c0.5,0.1,1-0.1,1.4-0.5l1.5-1.7h0.7l1.5,1.7c0.3,0.3,0.7,0.5,1.1,0.5c0.1,0,0.2,0,0.3,0c1.2-0.2,2.3-0.6,3.3-1.1
		c0.5-0.2,0.8-0.7,0.8-1.2l0.2-2.2c0.2-0.1,0.4-0.3,0.6-0.5l2.1,0.5c0.5,0.1,1-0.1,1.4-0.4c0.8-0.9,1.5-1.8,2.1-2.9
		c0.2-0.4,0.2-1,0-1.4l-1.1-1.9c0.1-0.3,0.2-0.5,0.3-0.8l2-0.9c0.5-0.2,0.9-0.7,0.9-1.3v-3.2c0-0.6-0.3-1.1-0.9-1.3l-2-0.9
		c-0.1-0.3-0.2-0.5-0.3-0.8l1.1-1.9c0.3-0.4,0.3-1,0-1.4c-0.6-1-1.3-2-2.1-2.9c-0.3-0.4-0.9-0.6-1.4-0.4L77,5
		c-0.2-0.2-0.4-0.3-0.6-0.5l-0.2-2.2c0-0.5-0.4-1-0.8-1.2C74.2,0.7,73.1,0.3,72,0c-0.5-0.1-1,0.1-1.4,0.5l-1.5,1.7h-0.7l-1.5-1.7
		c-0.3-0.4-0.9-0.6-1.4-0.5c-1.2,0.2-2.3,0.6-3.3,1.1c-0.5,0.2-0.8,0.7-0.8,1.2l-0.2,2.2C61,4.7,60.7,4.8,60.5,5l-2.1-0.5
		c-0.5-0.1-1,0.1-1.4,0.4c-0.8,0.9-1.5,1.8-2.1,2.9c-0.2,0.4-0.2,1,0,1.4l1.1,1.9c-0.1,0.3-0.2,0.5-0.3,0.8l-2,0.9
		C53.3,13,53,13.6,53,14.1v3.2C53,17.9,53.3,18.5,53.9,18.7z M55.9,15.1l1.8-0.8c0.4-0.2,0.7-0.6,0.8-1c0.1-0.6,0.3-1.2,0.5-1.7
		c0.2-0.4,0.1-0.9-0.1-1.3l-1-1.8c0.2-0.4,0.5-0.7,0.7-1l1.9,0.4c0.5,0.1,0.9,0,1.3-0.3c0.4-0.4,0.9-0.7,1.4-1.1
		c0.4-0.2,0.6-0.6,0.7-1.1l0.2-2c0.4-0.2,0.8-0.3,1.2-0.4l1.3,1.5c0.3,0.3,0.7,0.5,1.1,0.5h2c0.4,0,0.8-0.2,1.1-0.5L72.2,3
		c0.4,0.1,0.8,0.2,1.2,0.4l0.2,2c0,0.4,0.3,0.9,0.7,1.1c0.5,0.3,1,0.7,1.4,1.1C76,7.9,76.5,8,76.9,7.9l1.9-0.4
		c0.3,0.3,0.5,0.7,0.8,1l-1,1.8c-0.2,0.4-0.3,0.9-0.1,1.3c0.2,0.6,0.4,1.1,0.5,1.7c0.1,0.4,0.4,0.8,0.8,1l1.8,0.8v1.4l-1.8,0.8
		c-0.4,0.2-0.7,0.6-0.8,1c-0.1,0.6-0.3,1.2-0.5,1.7c-0.2,0.4-0.1,0.9,0.1,1.3l1,1.8c-0.2,0.4-0.5,0.7-0.8,1l-1.9-0.4
		c-0.5-0.1-0.9,0-1.3,0.3c-0.4,0.4-0.9,0.7-1.4,1.1c-0.4,0.2-0.6,0.6-0.7,1.1l-0.2,2c-0.4,0.2-0.8,0.3-1.2,0.4l-1.3-1.5
		c-0.3-0.3-0.7-0.5-1.1-0.5h-2c-0.4,0-0.8,0.2-1.1,0.5l-1.3,1.5c-0.4-0.1-0.8-0.2-1.2-0.4L64,26c0-0.4-0.3-0.9-0.7-1.1
		c-0.5-0.3-1-0.7-1.4-1.1c-0.3-0.3-0.8-0.4-1.3-0.3L58.7,24c-0.3-0.3-0.5-0.7-0.8-1l1-1.8c0.2-0.4,0.3-0.9,0.1-1.3
		c-0.2-0.6-0.4-1.1-0.5-1.7c-0.1-0.4-0.4-0.8-0.8-1l-1.8-0.8V15.1z"/>
	<path id="XMLID_87_" fill="#C62828" d="M68.8,22.7c3.9,0,7-3.1,7-7s-3.1-7-7-7s-7,3.1-7,7C61.8,19.6,64.9,22.7,68.8,22.7z M68.8,11.6
		c2.3,0,4.2,1.9,4.2,4.2s-1.9,4.2-4.2,4.2c-2.3,0-4.2-1.9-4.2-4.2C64.6,13.4,66.4,11.6,68.8,11.6z"/>
	<path id="XMLID_90_" fill="#C62828" d="M89.5,56.4l-2.3-0.5c-0.1-0.4-0.2-0.8-0.3-1.2l1.8-1.6c0.5-0.5,0.7-1.2,0.4-1.8
		c-0.8-1.8-1.8-3.5-3-5.1c-0.4-0.6-1.1-0.8-1.8-0.6L82,46.4c-0.3-0.3-0.6-0.6-0.9-0.9l0.7-2.3c0.2-0.7,0-1.4-0.6-1.8
		c-1.6-1.2-3.3-2.2-5.1-3c-0.6-0.3-1.4-0.1-1.8,0.4l-1.6,1.8c-0.4-0.1-0.8-0.2-1.2-0.3L71.1,38c-0.2-0.7-0.8-1.3-1.6-1.3H64
		c-0.8,0-1.4,0.5-1.6,1.3l-0.5,2.3c-0.4,0.1-0.8,0.2-1.2,0.3l-1.6-1.8c-0.5-0.5-1.2-0.7-1.8-0.4c-1.8,0.8-3.5,1.8-5.1,3
		c-0.6,0.4-0.8,1.1-0.6,1.8l0.7,2.3c-0.3,0.3-0.6,0.6-0.9,0.9l-2.3-0.7c-0.7-0.2-1.4,0-1.8,0.6c-1.2,1.6-2.2,3.3-3,5.1
		c-0.3,0.6-0.1,1.4,0.4,1.8l1.8,1.6c-0.1,0.4-0.2,0.8-0.3,1.2L44,56.4c-0.7,0.2-1.3,0.8-1.3,1.6v5.5c0,0.8,0.5,1.4,1.3,1.6l2.3,0.5
		c0.1,0.4,0.2,0.8,0.3,1.2l-1.8,1.6c-0.5,0.5-0.7,1.2-0.4,1.8c0.8,1.8,1.8,3.5,3,5.1c0.4,0.6,1.1,0.8,1.8,0.6l2.3-0.7
		c0.3,0.3,0.6,0.6,0.9,0.9l-0.7,2.3c-0.2,0.7,0,1.4,0.6,1.8c1.6,1.2,3.3,2.2,5.1,3c0.6,0.3,1.4,0.1,1.8-0.4l1.6-1.8
		c0.4,0.1,0.8,0.2,1.2,0.3l0.5,2.3c0.2,0.7,0.8,1.3,1.6,1.3h5.5c0.8,0,1.4-0.5,1.6-1.3l0.5-2.3c0.4-0.1,0.8-0.2,1.2-0.3l1.6,1.8
		c0.5,0.5,1.2,0.7,1.8,0.4c1.8-0.8,3.5-1.8,5.1-3c0.6-0.4,0.8-1.1,0.6-1.8L81.1,76c0.3-0.3,0.6-0.6,0.9-0.9l2.3,0.7
		c0.7,0.2,1.4,0,1.8-0.6c1.2-1.6,2.2-3.3,3-5.1c0.3-0.6,0.1-1.4-0.4-1.8l-1.8-1.6c0.1-0.4,0.2-0.8,0.3-1.2l2.3-0.5
		c0.7-0.2,1.3-0.8,1.3-1.6V58C90.7,57.2,90.2,56.6,89.5,56.4z M87.5,62.2l-2.1,0.4c-0.6,0.1-1.1,0.6-1.3,1.3c-0.2,1-0.4,1.9-0.8,2.8
		c-0.2,0.6,0,1.3,0.4,1.7l1.7,1.5c-0.4,0.8-0.9,1.7-1.4,2.4L82,71.7c-0.6-0.2-1.3,0-1.7,0.5c-0.6,0.7-1.3,1.4-2.1,2.1
		c-0.5,0.4-0.7,1.1-0.5,1.7l0.7,2.1c-0.8,0.5-1.6,1-2.4,1.4l-1.5-1.7c-0.4-0.5-1.1-0.7-1.7-0.4c-0.9,0.3-1.9,0.6-2.8,0.8
		c-0.6,0.1-1.2,0.6-1.3,1.3l-0.4,2.1h-2.9l-0.4-2.1c-0.1-0.6-0.6-1.1-1.3-1.3c-1-0.2-1.9-0.4-2.8-0.8h0c-0.6-0.2-1.3,0-1.7,0.4
		l-1.5,1.7c-0.8-0.4-1.7-0.9-2.4-1.4l0.7-2.1c0.2-0.6,0-1.3-0.5-1.7c-0.7-0.6-1.4-1.3-2.1-2.1c-0.4-0.5-1.1-0.7-1.7-0.5l-2.1,0.7
		c-0.5-0.8-1-1.6-1.4-2.4l1.7-1.5c0.5-0.4,0.7-1.1,0.4-1.7c-0.3-0.9-0.6-1.9-0.8-2.8c-0.1-0.6-0.6-1.2-1.3-1.3L46,62.2v-2.9l2.1-0.4
		c0.6-0.1,1.1-0.6,1.3-1.3c0.2-1,0.4-1.9,0.8-2.8c0.2-0.6,0-1.3-0.4-1.7l-1.7-1.5c0.4-0.8,0.9-1.7,1.4-2.4l2.1,0.7
		c0.6,0.2,1.3,0,1.7-0.5c0.6-0.7,1.3-1.4,2.1-2.1c0.5-0.4,0.7-1.1,0.5-1.7l-0.7-2.1c0.8-0.5,1.6-1,2.4-1.4l1.5,1.7
		c0.4,0.5,1.1,0.7,1.7,0.4c0.9-0.3,1.9-0.6,2.8-0.8c0.6-0.1,1.2-0.6,1.3-1.3l0.4-2.1h2.9l0.4,2.1c0.1,0.6,0.6,1.1,1.3,1.3
		c1,0.2,1.9,0.4,2.8,0.8c0.6,0.2,1.3,0,1.7-0.4l1.5-1.7c0.8,0.4,1.7,0.9,2.4,1.4l-0.7,2.1c-0.2,0.6,0,1.3,0.5,1.7
		c0.7,0.6,1.4,1.3,2.1,2.1c0.4,0.5,1.1,0.7,1.7,0.5l2.1-0.7c0.5,0.8,1,1.6,1.4,2.4L83.9,53c-0.5,0.4-0.7,1.1-0.4,1.7
		c0.3,0.9,0.6,1.9,0.8,2.8c0.1,0.6,0.6,1.2,1.3,1.3l2.1,0.4V62.2z"/>
	<path id="XMLID_93_" fill="#C62828" d="M29.8,56.8c-2.1-1.1-4-0.5-4,1v3h-15v-19h-3v19c0,3,2.9,2.9,2.9,2.9l15.1,0.1v3
		c0,1.5,2,1.8,4,1c0,0,10-4,10-5.5S29.8,56.8,29.8,56.8z M29.4,65.1v-5.6l5.9,2.8L29.4,65.1z"/>
	<path id="XMLID_96_" fill="#C62828" d="M66.8,47.8c-7.2,0-13,5.8-13,13c0,7.2,5.8,13,13,13c7.2,0,13-5.8,13-13
		C79.8,53.6,73.9,47.8,66.8,47.8z M68.6,66.3c-0.9,1.7-1.9,1.9-1.9,1.9c-1.9,0-3.5-1.6-3.8-1.9l-3.8-3.9l1.9-1.9l3.8,3.9l5.6-9.6
		l3.8,1.9L68.6,66.3z"/>
</g>
</svg>
