<?xml version="1.0" encoding="utf-8"?>
<!-- Generator: Adobe Illustrator 19.0.0, SVG Export Plug-In . SVG Version: 6.00 Build 0)  -->
<svg version="1.1" id="Layer_1" xmlns="http://www.w3.org/2000/svg" xmlns:xlink="http://www.w3.org/1999/xlink" x="0px" y="0px"
	 viewBox="0 0 96 64" style="enable-background:new 0 0 96 64;" xml:space="preserve">
<style type="text/css">
	.st0{fill:#FFFFFF;}
	.st1{clip-path:url(#SVGID_2_);fill:#9E9E9E;}
</style>
<rect width="96" height="64"/>
<g>
	<defs>
		<rect id="SVGID_1_" width="96" height="64"/>
	</defs>
	<clipPath id="SVGID_2_">
		<use xlink:href="#SVGID_1_"  style="overflow:visible;"/>
	</clipPath>
	<path fill="#9E9E9E" d="M24.8,26c0-9.4,7.6-17,17-17s17,7.6,17,17s-7.6,17-17,17S24.8,35.4,24.8,26 M71.2,53.3l-15-15
		c2.8-3.3,4.6-7.6,4.6-12.3c0-10.5-8.5-19-19-19s-19,8.5-19,19c0,10.5,8.5,19,19,19c4.7,0,9-1.7,12.3-4.5l15,15L71.2,53.3z"/>
</g>
</svg>
